<svg width="43" height="44" viewBox="0 0 43 44" fill="none" xmlns="http://www.w3.org/2000/svg">
<path d="M11.4093 32.6251C20.7124 41.9 31.2707 46.4114 34.992 42.7014L39.4839 38.223C40.4143 37.2955 40.4143 35.7917 39.4839 34.8642L33.869 29.2663C32.9387 28.3388 31.4304 28.3388 30.5 29.2663L27.1311 32.6251C20.2322 29.3672 14.6771 23.8289 11.4093 16.9509L14.7783 13.5921C15.7086 12.6646 15.7086 11.1608 14.7783 10.2333L9.16339 4.63539C8.23306 3.70788 6.72472 3.70788 5.79439 4.63539L1.30245 9.11375C-2.41884 12.8238 2.1062 23.3501 11.4093 32.6251Z" fill="#4E6AD9"/>
<path d="M39.4838 34.8643L33.8689 29.2664C32.9386 28.3389 31.4302 28.3389 30.4999 29.2664L27.1309 32.6252C23.6815 30.9962 20.5681 28.7971 17.9084 26.1456L11.4092 32.6252C20.7123 41.9002 31.2706 46.4115 34.9919 42.7015L39.4838 38.2231C40.4141 37.2956 40.4141 35.7918 39.4838 34.8643Z" fill="#21378C"/>
</svg>
