<svg width="33" height="67" viewBox="0 0 33 67" fill="none" xmlns="http://www.w3.org/2000/svg">
<g clip-path="url(#clip0_2_462)">
<path d="M16.2627 0.454199L2.23784 5.66949C1.01783 6.12317 0.229554 7.31181 0.286323 8.61221L1.85713 44.5944C1.94592 46.6284 3.99169 47.9851 5.8999 47.2755L13.6706 44.3859C15.6706 43.6421 17.7858 45.1653 17.7145 47.298L17.1639 63.762C17.0461 67.2824 22.042 68.09 23.0394 64.7118L32.2422 33.5419C32.942 31.1714 30.6359 29.019 28.3193 29.8805L18.7243 33.4485C16.5096 34.2721 14.2563 32.3309 14.743 30.0187L20.244 3.884C20.7307 1.57179 18.4774 -0.369366 16.2627 0.454199Z" fill="#FFE300" fill-opacity="0.98"/>
</g>
<defs>
<clipPath id="clip0_2_462">
<rect width="33" height="67" fill="white"/>
</clipPath>
</defs>
</svg>
