<svg width="138" height="86" viewBox="0 0 138 86" fill="none" xmlns="http://www.w3.org/2000/svg">
<mask id="mask0_2_363" style="mask-type:luminance" maskUnits="userSpaceOnUse" x="56" y="0" width="82" height="86">
<path d="M100.609 3.86334e-05L137.119 28.5498L92.51 85.5963L56.0002 57.0465L100.609 3.86334e-05Z" fill="white"/>
</mask>
<g mask="url(#mask0_2_363)">
<path d="M79.2305 63.3024C80.5283 60.2232 82.0557 57.3236 81.0727 54.3218C80.2704 51.0891 79.8628 45.932 80.8819 42.2627C81.901 38.5934 82.1333 33.5644 81.6585 31.3323C81.3644 28.8692 80.0693 26.7398 80.9233 25.1745C81.5967 23.8402 85.4203 22.7361 88.4053 25.0704C91.62 27.5842 91.9786 32.3308 92.0431 34.6144C92.8145 34.101 93.537 33.1772 94.0298 32.0738L104.918 13.4184C106.133 11.3911 108.545 10.6722 110.563 11.8777C112.4 13.3142 113.006 14.9049 112.792 16.5983L113.334 15.9054C114.549 13.8782 116.961 13.1593 118.979 14.3648C120.996 15.5703 121.52 18.213 120.485 20.0092L118.909 22.4984C120.222 21.2922 122.093 21.2662 123.651 22.1125C125.669 23.3181 126.192 25.9607 125.158 27.757L123.894 29.3737C125.256 28.578 126.897 28.3724 128.274 29.4497C130.292 30.6553 130.586 33.1183 129.552 34.9146L119.502 50.1318C117.565 53.0828 108.682 65.8622 100.08 74.0232C96.9268 79.0014 90.887 82.4665 83.2759 78.0036C75.4843 73.7716 77.3419 66.664 79.2305 63.3024Z" fill="#FBBEAA"/>
<path d="M101.979 49.8273C102.048 41.6938 94.8476 37.1795 92.1902 35.8458C91.976 37.5393 91.8444 38.1807 92.7629 38.899C94.9611 39.8735 101.194 43.2591 101.979 49.8273ZM112.25 17.2911C112.48 17.4707 112.709 17.6502 112.529 17.8812C112.529 17.8812 112.036 18.9846 111.182 20.5499C110.64 21.2427 110.147 22.3461 109.835 23.2186C108.932 24.3733 108.439 25.4767 107.717 26.4006C106.731 28.6073 105.106 30.686 104.252 32.2513C103.168 33.637 102.675 34.7404 102.675 34.7404C102.495 34.9713 102.495 34.9713 102.265 34.7918C102.036 34.6122 101.806 34.4327 101.987 34.2017C101.987 34.2017 102.479 33.0983 103.333 31.533C104.187 29.9677 105.403 27.9405 106.798 25.6823C106.881 24.6303 107.603 23.7065 108.096 22.6031C108.819 21.6793 109.311 20.5759 109.853 19.883C110.937 18.4973 111.659 17.5735 111.659 17.5735C111.84 17.3425 112.25 17.2911 112.25 17.2911ZM118.187 23.4221C118.416 23.6017 118.646 23.7812 118.465 24.0122C118.465 24.0122 117.923 24.7051 117.25 26.0394C116.708 26.7323 116.396 27.6047 115.854 28.2976C115.312 28.9905 114.82 30.0938 114.278 30.7867C113.243 32.583 111.979 34.1997 110.895 35.5854C109.992 36.7402 109.27 37.664 109.27 37.664C109.089 37.895 109.089 37.895 108.86 37.7154C108.63 37.5359 108.4 37.3563 108.581 37.1254C108.581 37.1254 109.074 36.022 109.747 34.6876C110.699 33.9434 111.734 32.1471 112.768 30.3508C113.491 29.427 113.803 28.5546 114.345 27.8617C114.887 27.1688 115.429 26.476 115.741 25.6035C116.644 24.4487 117.366 23.5249 117.366 23.5249C117.957 23.2426 117.957 23.2426 118.187 23.4221ZM123.532 29.8355C123.762 30.015 123.992 30.1946 123.811 30.4256C123.811 30.4256 123.499 31.298 122.596 32.4528C122.464 33.0943 121.922 33.7871 121.561 34.249C121.019 34.9419 120.478 35.6348 120.165 36.5072C119.082 37.893 117.998 39.2787 117.095 40.4335C116.192 41.5883 115.65 42.2812 115.65 42.2812L115.24 42.3326C115.01 42.153 114.781 41.9734 114.961 41.7425C114.961 41.7425 115.274 40.87 116.177 39.7153C116.669 38.6119 117.753 37.2261 118.607 35.6608C119.149 34.968 119.691 34.2751 120.232 33.5822C120.774 32.8893 121.316 32.1965 121.677 31.7345C122.58 30.5798 123.122 29.8869 123.122 29.8869L123.532 29.8355Z" fill="#F18380"/>
</g>
<mask id="mask1_2_363" style="mask-type:luminance" maskUnits="userSpaceOnUse" x="0" y="0" width="64" height="78">
<path d="M63.7619 0H0V78H63.7619V0Z" fill="white"/>
</mask>
<g mask="url(#mask1_2_363)">
<path d="M56.0912 39.4786C55.8515 49.2884 56.0912 56.9448 54.4133 64.362C52.7354 71.7792 47.2221 78 35.2368 78C23.2515 78 9.5882 74.1718 8.62938 59.0982C6.71172 56.9448 3.35583 49.2884 3.35583 40.9141C3.35583 32.3006 4.07495 14.3559 23.2515 11.724C42.6677 8.85282 56.5707 16.0307 56.0912 39.4786Z" fill="#FBBEAA"/>
<path d="M46.0236 47.1349C46.0236 48.5705 46.7427 49.5276 47.7016 49.5276C48.6604 49.5276 49.3795 48.3313 49.3795 47.1349C49.3795 45.6994 48.6604 44.7423 47.7016 44.7423C46.7427 44.7423 46.0236 45.6994 46.0236 47.1349Z" fill="#403D4F"/>
<path d="M24.45 47.1349C24.45 48.5705 25.1691 49.5276 26.128 49.5276C27.0868 49.5276 27.8059 48.3313 27.8059 47.1349C27.8059 45.6994 27.0868 44.7423 26.128 44.7423C25.1691 44.7423 24.45 45.6994 24.45 47.1349Z" fill="#403D4F"/>
<path d="M28.7648 39.4786C28.525 39.7178 27.3265 39.4786 26.3677 39.4786C25.1692 39.4786 23.4912 39.4786 23.4912 39.2393C23.4912 39 24.45 37.5644 26.8471 37.8037C28.525 38.043 29.0045 39.2393 28.7648 39.4786Z" fill="#403D4F"/>
<path d="M45.5442 39.4786C45.7839 39.7178 46.7427 39.4786 47.7016 39.4786C48.6604 39.4786 50.0986 39.4786 50.0986 39.2393C50.0986 39 49.3795 37.5644 47.2222 37.8037C45.7839 38.043 45.3045 39.2393 45.5442 39.4786Z" fill="#403D4F"/>
<path d="M38.5927 56.9448C40.2706 56.9448 41.7089 55.7485 41.7089 55.0307L41.2295 48.3313C41.2295 48.092 40.7501 47.8528 40.5104 47.8528C40.2706 47.8528 39.7912 48.092 40.0309 48.5706L40.5104 55.0307C40.2706 55.27 39.5515 55.7485 38.5927 55.7485C38.1133 55.7485 37.8736 55.9878 37.8736 56.4663C37.6339 56.7055 37.8736 56.9448 38.5927 56.9448C38.353 56.9448 38.353 56.9448 38.5927 56.9448Z" fill="#F18380"/>
<path d="M20.6147 30.6258C20.6147 36.6074 18.2177 39 16.5397 40.1963C14.8618 41.3926 13.4235 42.3497 13.4235 44.5031C13.4235 46.6565 13.4235 50.9632 13.4235 51.681C13.4235 52.3988 12.9441 53.1166 12.225 52.8773C11.5059 52.638 9.34852 51.4417 9.34852 50.2454L2.15733 45.2209C2.15733 45.2209 -0.479438 40.1963 0.239681 31.1043C0.958801 22.0123 7.91029 17.4663 7.91029 17.4663C8.14999 12.4417 12.7044 3.3497 22.7721 -0.239258C23.2515 2.39264 22.7721 5.26381 22.7721 5.26381C27.3265 1.19632 42.6677 -0.239258 48.4207 1.67485C47.7015 4.06749 45.0648 6.46013 45.0648 6.46013C50.3383 7.17792 59.9266 12.4417 64.2413 18.6626C62.5633 21.2945 58.728 23.4479 58.728 23.4479C60.6457 25.362 62.803 30.865 63.0428 35.1718C57.5295 35.1718 49.8589 31.8221 49.8589 31.8221C49.8589 31.8221 50.3383 35.1718 49.6192 38.043C44.8251 37.8037 35.7162 32.7792 33.3192 28.9509C33.7986 31.1043 33.3192 36.8466 32.8398 38.5215C28.2853 38.5215 22.7721 33.9755 20.6147 30.6258Z" fill="#403D4F"/>
<path d="M9.1088 51.681C8.86909 49.0491 8.62939 44.9816 4.79409 44.7423C0.958783 44.7423 0.47937 47.6135 0.47937 52.1595C0.719077 56.7055 5.2735 60.773 9.34851 59.0981L9.1088 51.681Z" fill="#FBBEAA"/>
<path d="M3.35584 55.0307C3.83525 55.0307 4.07496 54.5522 4.07496 54.3129C4.07496 54.0736 4.07496 53.8344 4.55437 53.5951C5.03379 53.3558 5.5132 53.3558 6.23232 53.5951C6.47202 53.8344 6.71173 53.8344 6.95144 53.5951C6.95144 53.5951 7.19114 53.3558 7.19114 53.1166C6.95144 49.2884 4.31467 48.5706 4.31467 48.5706C4.07496 48.5706 3.59555 48.5706 3.59555 49.0491C3.59555 49.2883 3.59555 49.7669 4.07496 49.7669C4.07496 49.7669 5.27349 50.2454 5.99261 52.1595C5.27349 52.1595 4.55437 52.1595 4.07496 52.638C3.35584 53.1166 3.11614 53.8344 3.11614 54.5522C2.87643 54.7914 3.11614 55.0307 3.35584 55.0307Z" fill="#F18380"/>
<path d="M35.7162 62.4479C32.3604 61.2515 28.5251 60.2945 27.0868 61.4908C26.128 62.4479 27.5662 67.4724 32.6001 68.4295C37.6339 69.3865 39.5516 65.7976 39.3118 64.362C39.3118 63.6442 38.353 63.4049 35.7162 62.4479Z" fill="#73102A"/>
<path d="M27.3265 61.73C27.0868 61.73 27.0868 61.73 27.3265 61.73C26.128 62.9264 27.5662 67.7116 32.8398 68.6687C34.278 68.908 35.2369 68.908 36.1957 68.4294C34.278 65.319 30.9221 62.2086 27.3265 61.73Z" fill="#D65155"/>
<path d="M28.5251 61.0123C30.203 63.1656 34.278 65.319 39.5516 64.362C39.3119 63.6442 38.353 63.1656 35.7163 62.4478C33.0795 61.7301 30.203 60.773 28.5251 61.0123Z" fill="white"/>
</g>
</svg>
