<svg width="302" height="217" viewBox="0 0 302 217" fill="none" xmlns="http://www.w3.org/2000/svg">
<mask id="mask0_2_286" style="mask-type:luminance" maskUnits="userSpaceOnUse" x="32" y="22" width="208" height="167">
<path d="M240 22H32V189H240V22Z" fill="white"/>
</mask>
<g mask="url(#mask0_2_286)">
<path d="M233.251 86.1616L212.696 156.919C209.628 168.013 201.652 175.508 189.074 171.61C181.404 169.212 174.041 160.217 178.029 147.925L210.855 75.6679C213.923 66.9731 220.366 63.3752 227.115 65.7738C235.091 68.772 236.932 75.0682 233.251 86.1616Z" fill="#FBBEAA"/>
<path d="M234.785 80.7648C236.012 71.7702 240 54.0808 240.307 48.9839C240.614 43.8869 239.08 37.2909 238.159 34.2926C237.546 31.2944 234.478 26.4973 233.251 24.3986C232.024 22.2998 230.796 22 229.569 22.8995C228.342 23.7989 227.422 25.5979 227.729 27.6966C227.729 27.6966 225.581 25.298 224.661 24.0988C223.74 22.8995 221.9 22.8995 220.673 24.6984C219.445 26.4973 219.139 30.6948 220.366 33.693C220.366 33.693 216.071 28.8959 214.537 27.9964C213.31 26.7971 212.389 26.7971 211.162 27.6966C209.935 28.5961 208.401 30.6948 208.708 33.3932C209.015 36.0916 212.083 39.9892 212.083 39.9892C212.083 39.9892 205.64 34.8923 204.106 33.9928C202.572 33.0934 201.652 33.693 201.038 35.1921C200.425 36.6912 199.811 38.4901 201.038 41.4883C202.265 44.4865 204.413 45.0862 205.027 45.9856C205.64 46.8851 206.56 51.0826 207.174 52.8815C205.947 60.6768 208.094 63.3752 208.708 66.6733C209.322 69.9713 210.242 73.2693 209.628 77.167C208.708 82.2639 212.696 90.0592 221.286 90.9587C230.183 91.2585 233.557 87.3609 234.785 80.7648Z" fill="#FBBEAA"/>
<path d="M228.649 28.2962C228.649 28.2962 228.956 28.5961 229.263 28.8959C229.569 29.1957 230.183 29.7953 230.796 30.6948C230.796 30.9946 231.103 31.2944 231.41 31.8941C231.717 32.1939 232.024 32.7935 232.33 33.3932C232.637 33.9928 232.637 34.5925 232.944 35.1921C233.251 35.7918 233.251 36.3914 233.558 36.991C233.864 37.8905 234.171 38.79 234.478 39.9892C234.785 41.1885 234.785 42.088 235.091 42.9874C235.398 44.7864 235.705 45.9856 235.705 45.9856C235.705 46.2855 235.705 46.5853 235.398 46.5853C235.091 46.5853 235.091 46.5853 234.785 46.2855C234.785 46.2855 234.478 45.0862 233.864 43.5871C233.251 41.7882 232.637 39.6894 232.024 37.2909C231.717 36.6912 231.41 36.0916 231.41 35.4919C231.103 34.8923 231.103 34.2927 230.796 33.9928C230.49 33.693 230.49 33.0934 230.183 32.7935C229.876 32.4937 229.569 31.8941 229.569 31.5943C228.649 30.0952 228.035 29.1957 228.035 29.1957C228.035 28.8959 228.035 28.5961 228.035 28.5961C228.342 27.9964 228.342 27.9964 228.649 28.2962ZM220.979 33.693C220.673 33.693 220.673 33.9928 220.673 34.2927C220.673 34.2927 220.673 34.5925 220.979 34.8923C220.979 35.1921 221.286 35.7918 221.593 36.3914C221.593 36.6912 221.9 36.991 221.9 37.2909C221.9 37.5907 222.207 37.8905 222.207 38.4901C222.513 39.3896 222.82 39.9892 223.127 40.8887C223.74 42.6876 224.354 44.1867 224.968 45.386C224.968 45.6858 224.968 45.6858 225.274 45.9856C225.274 45.9856 225.274 45.9856 225.274 46.2855C225.274 46.5853 225.581 46.5853 225.581 46.8851L225.888 47.1849C225.888 47.1849 226.195 47.4847 226.502 47.1849C226.808 47.1849 226.808 46.8851 226.808 46.5853C226.808 46.5853 226.808 46.5853 226.502 46.2855C226.502 45.9856 226.501 45.9856 226.195 45.6858C226.195 45.6858 226.195 45.386 225.888 45.386V45.0862C225.581 43.8869 224.968 42.088 224.661 40.5889C224.354 39.6894 224.047 39.0898 223.74 38.1903C223.74 37.8905 223.434 37.5907 223.127 36.991C222.82 36.6912 222.82 36.3914 222.513 36.0916C222.207 35.4919 221.9 35.1921 221.593 34.8923C221.593 33.9928 221.593 33.9928 221.593 33.9928C221.286 33.693 220.979 33.693 220.979 33.693ZM212.696 39.9892C212.389 39.9892 212.389 40.2891 212.389 40.5889C212.389 40.5889 212.389 41.1885 212.696 41.7882C212.696 42.088 213.003 42.6876 213.003 42.9874C213.003 43.5871 213.31 43.8869 213.31 44.4865C213.617 45.386 213.923 46.2855 214.23 47.1849C214.537 47.7846 214.844 48.3842 214.844 48.3842L215.15 48.684C215.457 48.684 215.457 48.3842 215.457 48.0844C215.457 48.0844 215.457 47.4848 215.15 46.8851C214.844 45.9856 214.844 45.0862 214.537 44.1867C214.23 43.5871 214.23 43.2873 213.923 42.6876C213.617 42.3878 213.617 41.7882 213.31 41.4883C213.31 40.5889 213.003 39.9892 213.003 39.9892C213.003 39.9892 213.003 39.6894 212.696 39.9892Z" fill="#F18380"/>
<path d="M202.572 152.122C190.301 88.2603 219.752 64.2747 219.752 64.2747H150.112C150.112 64.2747 120.661 88.2603 132.932 152.122H202.572Z" fill="#E6E6EB"/>
<path d="M104.401 96.6553L42.7375 138.33C32.9204 144.627 28.0118 154.521 36.295 164.715C41.2036 171.011 52.2478 174.908 62.6785 167.413L122.195 113.745C129.558 108.048 131.091 101.153 126.796 95.456C120.968 89.1598 114.218 89.7594 104.401 96.6553Z" fill="#FBBEAA"/>
<path d="M109.31 93.6571C117.593 89.7594 133.546 80.1651 138.454 78.3662C143.363 76.5673 150.112 75.6678 153.487 75.6678C156.861 75.368 162.077 76.5673 164.838 76.8671C167.292 77.4668 167.906 78.3662 167.599 79.8653C167.292 81.3644 165.758 82.5637 163.304 83.1633C163.304 83.1633 166.372 84.3626 167.906 84.9623C169.44 85.5619 170.053 87.061 168.519 88.8599C166.985 90.6589 163.304 92.158 159.929 91.8581C159.929 91.8581 165.758 94.5565 167.292 95.1562C168.826 96.0556 169.133 96.6553 168.519 98.1544C167.906 99.6535 166.679 101.452 163.917 102.052C161.156 102.652 156.248 101.153 156.248 101.153C156.248 101.153 163.304 105.65 164.531 106.549C165.758 107.449 165.758 108.648 164.531 109.548C163.304 110.447 161.77 111.946 158.702 111.646C155.634 111.346 154.1 109.548 152.873 109.248C151.953 108.948 147.658 109.548 145.51 109.548C138.454 113.145 135.08 111.946 131.705 112.546C128.637 113.145 124.956 113.145 121.274 115.244C116.673 117.943 107.776 116.443 104.094 108.648C100.72 101.153 103.174 96.6553 109.31 93.6571Z" fill="#FBBEAA"/>
<path d="M162.384 82.8635C162.384 83.1634 162.077 83.1634 161.77 83.1634C161.77 83.1634 160.543 82.8635 158.702 82.5637C158.395 82.5637 157.782 82.2639 157.168 82.2639C156.555 82.2639 156.248 82.2639 155.634 81.9641C155.327 81.9641 154.407 81.9641 154.1 81.9641C153.487 81.9641 152.873 81.9641 152.26 81.9641C149.805 81.9641 147.351 82.2639 145.51 82.2639C143.67 82.2639 142.443 82.2639 142.443 82.2639C142.136 82.2639 142.136 82.2639 142.136 81.9641C142.136 81.6643 142.136 81.6643 142.443 81.3644C142.443 81.3644 143.67 81.0646 145.51 80.7648C146.431 80.7648 147.658 80.465 148.578 80.465C149.805 80.465 151.032 80.1652 152.26 80.1652C152.873 80.1652 153.487 80.1652 154.1 80.1652C154.714 80.1652 155.327 80.1652 155.941 80.1652C156.555 80.1652 157.168 80.465 157.782 80.465C158.395 80.7648 158.702 80.7648 159.316 81.0646C160.236 81.3644 160.85 81.6643 161.463 81.9641C162.077 82.2639 162.384 82.2639 162.384 82.2639C162.384 82.5637 162.384 82.5637 162.384 82.8635ZM159.009 90.9587C159.009 90.9587 158.702 90.9587 158.395 90.6589C158.089 90.6589 157.475 90.3591 156.861 90.3591C156.555 90.3591 156.248 90.3591 155.634 90.0592C155.327 90.0592 154.714 89.7594 154.407 89.7594C153.487 89.7594 152.566 89.7594 151.646 89.7594C149.805 89.7594 147.965 89.7594 146.738 90.0592H146.431H146.124C145.817 90.0592 145.51 90.0592 145.51 90.0592C145.204 90.0592 145.204 90.0592 145.204 90.0592C144.897 90.0592 144.897 90.0592 144.59 90.3591C144.59 90.6589 144.59 90.6589 144.897 90.6589C144.897 90.6589 144.897 90.6589 145.204 90.6589C145.204 90.6589 145.51 90.6589 145.817 90.9587C146.124 90.9587 146.124 90.9587 146.431 91.2585H146.738C147.044 91.2585 147.044 91.2585 147.351 91.2585C148.578 91.2585 150.419 91.5583 152.26 91.2585C153.18 91.2585 154.1 91.2585 155.021 91.2585C155.634 91.2585 155.941 91.2585 156.248 91.2585C156.555 91.2585 156.861 91.2585 157.168 91.2585C157.782 91.2585 158.395 91.2585 158.702 91.2585C159.009 91.2585 159.316 91.2585 159.316 91.2585C159.622 91.2585 159.622 90.9587 159.929 90.9587C159.316 90.9587 159.316 90.9587 159.009 90.9587ZM155.634 100.553C155.634 100.553 155.021 100.253 154.407 100.253C154.1 100.253 153.487 100.253 153.18 99.9533C152.566 99.9533 152.26 99.9533 151.646 99.9533C150.419 99.9533 149.499 99.9533 148.578 100.253C147.658 100.253 147.351 100.553 147.351 100.553C147.044 100.553 147.044 100.853 147.044 101.153L147.351 101.452C147.351 101.452 147.965 101.452 148.578 101.752C149.499 101.752 150.419 101.752 151.339 101.752C151.953 101.752 152.26 101.752 152.873 101.752C153.487 101.752 153.794 101.752 154.1 101.752C155.021 101.752 155.327 101.452 155.327 101.452C155.634 101.452 155.634 101.153 155.634 100.853C155.941 100.553 155.941 100.553 155.634 100.553Z" fill="#F18380"/>
</g>
<path d="M28.9605 2.67503L14.9357 7.89032C13.7157 8.34399 12.9274 9.53264 12.9842 10.833L14.555 46.8153C14.6438 48.8492 16.6896 50.2059 18.5978 49.4963L26.3684 46.6067C28.3685 45.8629 30.4837 47.3862 30.4124 49.5189L29.8617 65.9829C29.744 69.5032 34.7399 70.3108 35.7373 66.9326L44.94 35.7627C45.6399 33.3922 43.3338 31.2399 41.0172 32.1013L31.4221 35.6694C29.2074 36.4929 26.9541 34.5518 27.4408 32.2395L32.9418 6.10483C33.4285 3.79261 31.1752 1.85146 28.9605 2.67503Z" fill="#FFE300" fill-opacity="0.98"/>
<path d="M294.469 136.584L280.281 131.828C279.047 131.415 277.687 131.844 276.914 132.891L255.525 161.869C254.316 163.507 255.055 165.848 256.985 166.495L264.846 169.13C266.869 169.808 267.558 172.322 266.162 173.937L255.388 186.398C253.084 189.062 256.463 192.83 259.362 190.829L286.107 172.365C288.141 170.96 287.7 167.837 285.356 167.051L275.65 163.797C273.41 163.046 272.877 160.12 274.708 158.628L295.41 141.754C297.242 140.261 296.709 137.335 294.469 136.584Z" fill="#FFE300" fill-opacity="0.98"/>
</svg>
