<svg width="358" height="164" viewBox="0 0 358 164" fill="none" xmlns="http://www.w3.org/2000/svg">
<mask id="mask0_2_301" style="mask-type:luminance" maskUnits="userSpaceOnUse" x="105" y="19" width="133" height="135">
<path d="M218.314 153.701L237.373 135.238L125.058 19.2977L106 37.7603L218.314 153.701Z" fill="white"/>
</mask>
<g mask="url(#mask0_2_301)">
<path d="M134.005 50.1849C137.947 53.7896 171.242 88.9136 171.242 88.9136L174.403 85.9079C174.403 85.9079 139.232 49.4852 137.225 47.1229C133.776 43.0404 132.405 40.1746 129.886 37.5155L118.559 25.7074L113.425 30.624L124.752 42.4321C127.272 45.0339 130.064 46.5227 134.005 50.1849Z" fill="#575756"/>
<path d="M187.193 121.459C190.927 125.604 212.228 147.244 212.228 147.244C212.228 147.244 215.138 150.828 219.196 149.503C221.499 148.746 224.959 147.094 227.684 144.624C230.267 142.008 232.085 138.661 232.944 136.355C234.426 132.37 230.993 129.291 230.993 129.291C230.993 129.291 210.273 107.09 206.278 103.197C202.282 99.3047 199.882 98.5691 194.125 95.7026C188.368 92.8362 186.683 85.1756 186.683 85.1756C186.989 83.5185 185.07 81.0146 182.826 79.2212C179.674 76.7216 173.348 80.6398 170.422 83.134C170.104 83.3858 169.814 83.6668 169.524 83.9478C169.234 84.2288 168.944 84.5098 168.653 84.7908C166.039 87.6066 161.895 93.7184 164.235 97.0048C165.842 99.2444 168.34 101.358 170.006 101.104C170.006 101.104 177.579 103.118 180.204 108.962C182.857 114.835 183.515 117.314 187.193 121.459Z" fill="#FCBF00"/>
<path d="M191.447 110.99C189.38 108.856 189.478 105.475 191.566 103.451C193.684 101.4 197.066 101.524 199.105 103.629L227.816 133.616C229.884 135.75 229.786 139.132 227.697 141.155C225.579 143.206 222.198 143.082 220.159 140.977L191.447 110.99Z" fill="#282727"/>
<path d="M169.643 95.5058L164.773 90.4203C163.597 92.8057 163.051 95.3183 164.264 96.9766C165.871 99.2163 168.369 101.33 170.035 101.076C170.035 101.076 170.263 101.138 170.692 101.29C171.517 99.4138 171.143 97.1125 169.643 95.5058Z" fill="#282727"/>
<path d="M216.504 144.461L187.793 114.474C186.235 112.866 183.947 112.419 182.017 113.155C183.384 116.308 184.448 118.451 187.164 121.429C190.899 125.575 212.199 147.214 212.199 147.214C212.199 147.214 214.46 149.954 217.76 149.762C218.354 147.995 217.92 145.922 216.504 144.461Z" fill="#282727"/>
<path d="M173.268 92.0505C175.336 94.1845 178.689 94.2794 180.807 92.228C182.924 90.1766 182.993 86.8231 180.926 84.6891L175.999 79.5451C173.865 80.5352 171.784 81.9852 170.422 83.1339C170.104 83.3857 169.814 83.6667 169.524 83.9477C169.234 84.2288 168.944 84.5098 168.654 84.7908C168.305 85.1853 167.927 85.608 167.519 86.1161L173.268 92.0505Z" fill="#282727"/>
</g>
<mask id="mask1_2_301" style="mask-type:luminance" maskUnits="userSpaceOnUse" x="108" y="0" width="141" height="164">
<path d="M249 30.4712L208.532 0L108.413 132.966L148.881 163.438L249 30.4712Z" fill="white"/>
</mask>
<g mask="url(#mask1_2_301)">
<path d="M210.081 34.4928L207.535 27.3731L213.465 10.5649C213.465 10.5649 202.309 11.3334 190.858 31.0414L210.081 34.4928Z" fill="#C6C6C6"/>
<path d="M147.699 146.117L200.462 66.088L183.953 54.5323L126.765 131.436L126.798 131.461C122.795 137.255 124.222 145.18 129.941 149.177C135.692 153.199 143.623 151.804 147.699 146.117Z" fill="#4462DC"/>
<path d="M238.723 38.3917C236.466 30.82 228.258 14.8532 228.258 14.8532L223.674 32.0565L215.178 35.4976L186.231 29.6175L183.821 54.6392L200.331 66.1948L232.062 50.5799C232.062 50.5799 240.956 45.9963 238.723 38.3917Z" fill="#C6C6C6"/>
<path d="M207.48 55.4043L189.653 52.0766L192.588 36.7222L210.423 40.1074L207.48 55.4043Z" fill="#9D9D9C"/>
<path d="M193.435 50.8039C193.335 51.3464 192.8 51.7161 192.258 51.6173C191.716 51.5184 191.348 50.984 191.449 50.4415L193.607 38.9832C193.707 38.4407 194.242 38.071 194.784 38.1698C195.326 38.2687 195.694 38.8031 195.593 39.3456L193.435 50.8039Z" fill="#C6C6C6"/>
<path d="M196.718 51.4216C196.618 51.9641 196.083 52.3338 195.541 52.235C194.999 52.1361 194.631 51.6017 194.732 51.0592L196.89 39.6009C196.99 39.0584 197.526 38.6887 198.067 38.7876C198.642 38.9111 198.977 39.4209 198.876 39.9634L196.718 51.4216Z" fill="#C6C6C6"/>
<path d="M200.001 52.0394C199.901 52.5819 199.366 52.9516 198.824 52.8527C198.282 52.7539 197.915 52.2194 198.015 51.6769L200.173 40.2187C200.274 39.6762 200.809 39.3065 201.35 39.4053C201.892 39.5042 202.26 40.0386 202.159 40.5811L200.001 52.0394Z" fill="#C6C6C6"/>
<path d="M203.26 52.69C203.159 53.2325 202.624 53.6022 202.082 53.5034C201.541 53.4045 201.173 52.87 201.273 52.3275L203.456 40.8364C203.557 40.2939 204.092 39.9242 204.633 40.0231C205.175 40.1219 205.543 40.6564 205.443 41.1989L203.26 52.69Z" fill="#C6C6C6"/>
<path d="M206.567 53.2749C206.467 53.8174 205.932 54.1871 205.39 54.0882C204.849 53.9894 204.481 53.4549 204.581 52.9124L206.739 41.4542C206.84 40.9117 207.375 40.542 207.917 40.6408C208.458 40.7397 208.826 41.2741 208.726 41.8166L206.567 53.2749Z" fill="#C6C6C6"/>
<path d="M145.322 142.524C143.704 144.809 140.146 150.216 133.124 145.29L133.149 145.257C126.717 140.775 130.021 135.227 131.639 132.942L182.617 65.5799C184.26 63.2624 187.473 62.7457 189.816 64.4071C192.159 66.0685 192.781 69.2664 191.196 71.5757L145.322 142.524Z" fill="#182869"/>
<path d="M186.812 68.738C185.673 67.932 184.095 68.1863 183.344 69.3204L135.358 133.322C132.981 136.683 133.219 139.026 136.144 141.074L136.857 141.559C138.07 142.267 139.137 142.555 140.082 142.391C141.775 142.12 142.947 140.427 143.731 139.318L147.049 134.502L187.416 72.2319C188.224 71.0896 187.95 69.5441 186.812 68.738Z" fill="#4462DC"/>
<path d="M238.723 38.3917C236.466 30.82 228.225 14.8285 228.225 14.8285L223.641 32.0318L215.178 35.4976L210.803 34.6246L192.531 60.7336L200.331 66.1948L232.062 50.5799C232.062 50.5799 240.956 45.9963 238.723 38.3917Z" fill="#9D9D9C"/>
<path d="M197.54 53.5345L207.48 55.4042L210.423 40.1074L207.378 39.5144L197.54 53.5345Z" fill="#646363"/>
<path d="M203.26 52.69L205.15 42.6784L202.311 46.7217L201.241 52.3029C201.14 52.8454 201.508 53.3798 202.05 53.4787C202.624 53.6022 203.159 53.2325 203.26 52.69Z" fill="#B2B2B2"/>
<path d="M206.568 53.2749C206.467 53.8174 205.932 54.1871 205.39 54.0882C204.849 53.9894 204.481 53.4549 204.581 52.9124L206.707 41.4295C206.807 40.887 207.342 40.5173 207.884 40.6161C208.426 40.715 208.793 41.2494 208.693 41.7919L206.568 53.2749Z" fill="#B2B2B2"/>
<path d="M200.462 66.088L192.539 60.5857L130.268 149.424C135.98 153.158 143.639 151.714 147.609 146.101L147.642 146.126L200.462 66.088Z" fill="#1C39AC"/>
<path d="M191.171 71.6085C192.789 69.3239 192.167 66.126 189.849 64.4317L133.157 145.315C140.171 150.184 143.704 144.809 145.322 142.524L191.171 71.6085Z" fill="#182869"/>
<path d="M187.416 72.2319C188.224 71.0896 187.95 69.5441 186.812 68.738L136.136 141.016L136.817 141.477C138.03 142.184 139.096 142.473 140.041 142.308C141.734 142.038 142.906 140.345 143.69 139.235L147.049 134.502L187.416 72.2319Z" fill="#4462DC"/>
</g>
<mask id="mask2_2_301" style="mask-type:luminance" maskUnits="userSpaceOnUse" x="0" y="15" width="81" height="133">
<path d="M81 15H0V148H81V15Z" fill="white"/>
</mask>
<g mask="url(#mask2_2_301)">
<path d="M63.604 124.211C63.604 118.264 62.5168 112.317 65.2349 107.451C67.953 102.045 71.2148 93.3943 71.7584 86.3659C72.302 79.3374 74.4765 70.687 76.1074 66.9024C77.7383 63.1179 81 59.874 80.4564 56.6301C79.9128 53.9268 75.0201 49.6016 68.4966 52.3049C61.9732 55.0081 59.255 62.5772 57.6242 66.9024C56.5369 65.2805 55.9933 63.1179 55.9933 61.4959L50.0134 22.0285C48.9262 18.2439 45.1208 15.5407 41.8591 16.0813C38.5973 16.622 36.9664 19.3252 36.4228 22.5691L35.8792 20.9472C34.7919 17.1626 31.5302 14.4594 27.7248 15C23.9195 16.0813 21.745 20.4065 22.2886 24.1911L23.3758 29.5976C21.745 26.8943 19.0268 25.2724 15.7651 25.813C12.5034 26.8943 10.3289 31.2195 10.8725 35.0041L11.4161 38.248C10.3289 36.0854 7.61074 35.5447 4.89262 36.0854C1.63087 37.1667 -0.543623 40.9512 6.4075e-07 45.2764L7.61074 77.7155C9.24161 83.6626 16.3087 111.236 25.5503 130.699C27.7248 140.972 35.3356 150.703 50.0134 147.459C64.1476 144.756 64.6913 131.24 63.604 124.211Z" fill="#FBBEAA"/>
<path d="M35.3356 86.9065C39.6846 72.309 53.2752 69.0651 58.1678 67.9838C57.6242 70.687 57.6242 72.309 55.4497 72.8496C51.6443 73.9309 40.2282 76.6342 35.3356 86.9065ZM36.4228 24.1911C35.8792 24.1911 35.8792 24.7317 35.8792 25.2724C35.8792 25.2724 35.8792 27.435 36.4228 30.6789C36.9664 32.3008 36.9664 34.4634 37.5101 36.0854C38.0537 38.248 38.0537 40.9512 38.5973 43.1138C39.6846 47.439 40.2282 51.7642 41.3154 55.0081C41.8591 58.252 42.9463 60.4146 42.9463 60.4146C42.9463 60.9553 43.4899 60.9553 43.4899 60.9553C44.0336 60.9553 44.0336 60.4147 44.0336 59.874C44.0336 59.874 44.0336 57.7114 43.4899 54.4675C42.9463 51.2236 42.4027 46.8984 41.3154 42.0325C40.7718 39.8699 40.2282 37.7073 40.2282 36.0854C39.6846 33.9228 39.1409 32.3008 39.1409 30.6789C38.5973 27.435 37.5101 25.2724 37.5101 25.2724C36.9664 24.7317 36.9664 24.1911 36.4228 24.1911ZM23.9195 31.2195C23.3758 31.2195 23.3758 31.7602 23.3758 32.3008C23.3758 32.3008 23.3758 34.4634 23.9195 37.1667C23.9195 38.7886 24.4631 40.4106 25.0067 42.0325C25.5503 43.6545 25.5503 45.8171 26.094 47.439C26.6376 51.2236 27.7248 55.0081 28.8121 57.7114C29.3557 60.4146 30.443 62.5773 30.443 62.5773C30.443 63.1179 30.9866 63.1179 30.9866 63.1179C31.5302 63.1179 31.5302 62.5773 31.5302 62.0366C31.5302 62.0366 31.5302 59.874 30.9866 57.1707C30.443 53.9268 29.3557 50.1423 28.8121 46.3577C28.2685 44.7358 27.7248 42.5732 27.1812 40.9512C27.1812 39.3293 26.6376 37.7073 26.094 36.0854C25.5503 33.3821 25.0067 31.7602 25.0067 31.7602C24.4631 31.2195 24.4631 31.2195 23.9195 31.2195ZM11.9597 39.3293C11.4161 39.3293 11.4161 39.8699 11.4161 40.4106C11.4161 40.4106 11.4161 42.0325 11.9597 44.7358C11.9597 45.8171 12.5034 47.439 13.047 49.061C13.5906 50.6829 13.5906 52.3049 14.1342 53.9268C14.6779 56.6301 15.7651 59.3333 16.3087 62.0366C16.8523 64.1992 17.9396 65.8212 17.9396 65.8212C17.9396 66.3618 18.4832 66.3618 18.4832 66.3618C19.0268 66.3618 19.0268 65.8212 19.0268 65.2805C19.0268 65.2805 19.0268 63.6586 18.4832 60.9553C17.9396 58.7927 17.396 55.5488 16.3087 52.3049C16.3087 50.6829 15.7651 49.061 15.2215 47.9797C15.2215 46.3577 14.6779 45.2764 14.1342 43.6545C13.5906 41.4919 13.047 39.8699 13.047 39.8699C12.5034 39.8699 12.5034 39.3293 11.9597 39.3293Z" fill="#F18380"/>
</g>
<mask id="mask3_2_301" style="mask-type:luminance" maskUnits="userSpaceOnUse" x="277" y="20" width="81" height="133">
<path d="M277 20H358V153H277V20Z" fill="white"/>
</mask>
<g mask="url(#mask3_2_301)">
<path d="M294.396 129.211C294.396 123.264 295.483 117.317 292.765 112.451C290.047 107.045 286.785 98.3943 286.242 91.3659C285.698 84.3374 283.523 75.687 281.893 71.9024C280.262 68.1179 277 64.874 277.544 61.6301C278.087 58.9268 282.98 54.6016 289.503 57.3049C296.027 60.0081 298.745 67.5772 300.376 71.9024C301.463 70.2805 302.007 68.1179 302.007 66.4959L307.987 27.0285C309.074 23.2439 312.879 20.5407 316.141 21.0813C319.403 21.622 321.034 24.3252 321.577 27.5691L322.121 25.9472C323.208 22.1626 326.47 19.4594 330.275 20C334.081 21.0813 336.255 25.4065 335.711 29.1911L334.624 34.5976C336.255 31.8943 338.973 30.2724 342.235 30.813C345.497 31.8943 347.671 36.2195 347.128 40.0041L346.584 43.248C347.671 41.0854 350.389 40.5447 353.107 41.0854C356.369 42.1667 358.544 45.9512 358 50.2764L350.389 82.7155C348.758 88.6626 341.691 116.236 332.45 135.699C330.275 145.972 322.664 155.703 307.987 152.459C293.852 149.756 293.309 136.24 294.396 129.211Z" fill="#FBBEAA"/>
<path d="M322.664 91.9065C318.315 77.309 304.725 74.0651 299.832 72.9838C300.376 75.687 300.376 77.309 302.55 77.8496C306.356 78.9309 317.772 81.6342 322.664 91.9065ZM321.577 29.1911C322.121 29.1911 322.121 29.7317 322.121 30.2724C322.121 30.2724 322.121 32.435 321.577 35.6789C321.034 37.3008 321.034 39.4634 320.49 41.0854C319.946 43.248 319.946 45.9512 319.403 48.1138C318.315 52.439 317.772 56.7642 316.685 60.0081C316.141 63.252 315.054 65.4146 315.054 65.4146C315.054 65.9553 314.51 65.9553 314.51 65.9553C313.966 65.9553 313.966 65.4147 313.966 64.874C313.966 64.874 313.966 62.7114 314.51 59.4675C315.054 56.2236 315.597 51.8984 316.685 47.0325C317.228 44.8699 317.772 42.7073 317.772 41.0854C318.315 38.9228 318.859 37.3008 318.859 35.6789C319.403 32.435 320.49 30.2724 320.49 30.2724C321.034 29.7317 321.034 29.1911 321.577 29.1911ZM334.081 36.2195C334.624 36.2195 334.624 36.7602 334.624 37.3008C334.624 37.3008 334.624 39.4634 334.081 42.1667C334.081 43.7886 333.537 45.4106 332.993 47.0325C332.45 48.6545 332.45 50.8171 331.906 52.439C331.362 56.2236 330.275 60.0081 329.188 62.7114C328.644 65.4146 327.557 67.5773 327.557 67.5773C327.557 68.1179 327.013 68.1179 327.013 68.1179C326.47 68.1179 326.47 67.5773 326.47 67.0366C326.47 67.0366 326.47 64.874 327.013 62.1707C327.557 58.9268 328.644 55.1423 329.188 51.3577C329.732 49.7358 330.275 47.5732 330.819 45.9512C330.819 44.3293 331.362 42.7073 331.906 41.0854C332.45 38.3821 332.993 36.7602 332.993 36.7602C333.537 36.2195 333.537 36.2195 334.081 36.2195ZM346.04 44.3293C346.584 44.3293 346.584 44.8699 346.584 45.4106C346.584 45.4106 346.584 47.0325 346.04 49.7358C346.04 50.8171 345.497 52.439 344.953 54.061C344.409 55.6829 344.409 57.3049 343.866 58.9268C343.322 61.6301 342.235 64.3333 341.691 67.0366C341.148 69.1992 340.06 70.8212 340.06 70.8212C340.06 71.3618 339.517 71.3618 339.517 71.3618C338.973 71.3618 338.973 70.8212 338.973 70.2805C338.973 70.2805 338.973 68.6586 339.517 65.9553C340.06 63.7927 340.604 60.5488 341.691 57.3049C341.691 55.6829 342.235 54.061 342.778 52.9797C342.778 51.3577 343.322 50.2764 343.866 48.6545C344.409 46.4919 344.953 44.8699 344.953 44.8699C345.497 44.8699 345.497 44.3293 346.04 44.3293Z" fill="#F18380"/>
</g>
</svg>
